<mxfile host="65bd71144e">
    <diagram id="daqdLlH97sKXs4wv8go4" name="Page-1">
        <mxGraphModel dx="885" dy="830" grid="1" gridSize="10" guides="1" tooltips="1" connect="1" arrows="1" fold="1" page="1" pageScale="1" pageWidth="1200" pageHeight="1920" math="0" shadow="0">
            <root>
                <mxCell id="0"/>
                <mxCell id="1" parent="0"/>
                <mxCell id="2" value="1" style="rounded=0;whiteSpace=wrap;html=1;" vertex="1" parent="1">
                    <mxGeometry x="80" y="80" width="80" height="120" as="geometry"/>
                </mxCell>
                <mxCell id="3" value="3" style="rounded=0;whiteSpace=wrap;html=1;" vertex="1" parent="1">
                    <mxGeometry x="160" y="80" width="80" height="120" as="geometry"/>
                </mxCell>
                <mxCell id="4" value="15" style="rounded=0;whiteSpace=wrap;html=1;" vertex="1" parent="1">
                    <mxGeometry x="620" y="80" width="80" height="120" as="geometry"/>
                </mxCell>
                <mxCell id="5" value="18" style="rounded=0;whiteSpace=wrap;html=1;" vertex="1" parent="1">
                    <mxGeometry x="700" y="80" width="80" height="120" as="geometry"/>
                </mxCell>
                <mxCell id="6" value="8" style="rounded=0;whiteSpace=wrap;html=1;" vertex="1" parent="1">
                    <mxGeometry x="440" y="80" width="80" height="120" as="geometry"/>
                </mxCell>
                <mxCell id="7" value="10" style="rounded=0;whiteSpace=wrap;html=1;" vertex="1" parent="1">
                    <mxGeometry x="520" y="80" width="80" height="120" as="geometry"/>
                </mxCell>
                <mxCell id="8" value="2" style="rounded=0;whiteSpace=wrap;html=1;" vertex="1" parent="1">
                    <mxGeometry x="260" y="80" width="80" height="120" as="geometry"/>
                </mxCell>
                <mxCell id="9" value="6" style="rounded=0;whiteSpace=wrap;html=1;" vertex="1" parent="1">
                    <mxGeometry x="340" y="80" width="80" height="120" as="geometry"/>
                </mxCell>
                <mxCell id="10" value="0" style="text;html=1;strokeColor=none;fillColor=none;align=center;verticalAlign=middle;whiteSpace=wrap;rounded=0;" vertex="1" parent="1">
                    <mxGeometry x="140" y="40" width="60" height="30" as="geometry"/>
                </mxCell>
                <mxCell id="12" value="1" style="text;html=1;strokeColor=none;fillColor=none;align=center;verticalAlign=middle;whiteSpace=wrap;rounded=0;" vertex="1" parent="1">
                    <mxGeometry x="320" y="40" width="60" height="30" as="geometry"/>
                </mxCell>
                <mxCell id="13" value="2" style="text;html=1;strokeColor=none;fillColor=none;align=center;verticalAlign=middle;whiteSpace=wrap;rounded=0;" vertex="1" parent="1">
                    <mxGeometry x="490" y="40" width="60" height="30" as="geometry"/>
                </mxCell>
                <mxCell id="14" value="3" style="text;html=1;strokeColor=none;fillColor=none;align=center;verticalAlign=middle;whiteSpace=wrap;rounded=0;" vertex="1" parent="1">
                    <mxGeometry x="690" y="40" width="60" height="30" as="geometry"/>
                </mxCell>
                <mxCell id="15" value="&lt;font style=&quot;font-size: 18px&quot;&gt;intervals.length = 4&lt;/font&gt;" style="text;html=1;strokeColor=none;fillColor=none;align=center;verticalAlign=middle;whiteSpace=wrap;rounded=0;" vertex="1" parent="1">
                    <mxGeometry x="760" y="20" width="180" height="50" as="geometry"/>
                </mxCell>
                <mxCell id="16" value="1" style="rounded=0;whiteSpace=wrap;html=1;" vertex="1" parent="1">
                    <mxGeometry x="80" y="250" width="80" height="120" as="geometry"/>
                </mxCell>
                <mxCell id="17" value="3" style="rounded=0;whiteSpace=wrap;html=1;" vertex="1" parent="1">
                    <mxGeometry x="160" y="250" width="80" height="120" as="geometry"/>
                </mxCell>
                <mxCell id="18" value="15" style="rounded=0;whiteSpace=wrap;html=1;" vertex="1" parent="1">
                    <mxGeometry x="620" y="250" width="80" height="120" as="geometry"/>
                </mxCell>
                <mxCell id="19" value="18" style="rounded=0;whiteSpace=wrap;html=1;" vertex="1" parent="1">
                    <mxGeometry x="700" y="250" width="80" height="120" as="geometry"/>
                </mxCell>
                <mxCell id="20" value="8" style="rounded=0;whiteSpace=wrap;html=1;" vertex="1" parent="1">
                    <mxGeometry x="440" y="250" width="80" height="120" as="geometry"/>
                </mxCell>
                <mxCell id="21" value="10" style="rounded=0;whiteSpace=wrap;html=1;" vertex="1" parent="1">
                    <mxGeometry x="520" y="250" width="80" height="120" as="geometry"/>
                </mxCell>
                <mxCell id="22" value="2" style="rounded=0;whiteSpace=wrap;html=1;" vertex="1" parent="1">
                    <mxGeometry x="260" y="250" width="80" height="120" as="geometry"/>
                </mxCell>
                <mxCell id="23" value="6" style="rounded=0;whiteSpace=wrap;html=1;" vertex="1" parent="1">
                    <mxGeometry x="340" y="250" width="80" height="120" as="geometry"/>
                </mxCell>
                <mxCell id="24" value="2" style="rounded=0;whiteSpace=wrap;html=1;" vertex="1" parent="1">
                    <mxGeometry x="120" y="400" width="80" height="120" as="geometry"/>
                </mxCell>
                <mxCell id="25" value="&lt;font style=&quot;font-size: 18px&quot;&gt;check if 2 is between the interval of the current interval we are looking at&lt;/font&gt;" style="text;html=1;strokeColor=none;fillColor=none;align=center;verticalAlign=middle;whiteSpace=wrap;rounded=0;" vertex="1" parent="1">
                    <mxGeometry x="215" y="425" width="330" height="70" as="geometry"/>
                </mxCell>
                <mxCell id="26" value="&lt;font style=&quot;font-size: 18px&quot;&gt;if so, merge the two intervals&lt;/font&gt;" style="text;html=1;strokeColor=none;fillColor=none;align=center;verticalAlign=middle;whiteSpace=wrap;rounded=0;" vertex="1" parent="1">
                    <mxGeometry x="180" y="560" width="330" height="70" as="geometry"/>
                </mxCell>
                <mxCell id="27" value="1" style="rounded=0;whiteSpace=wrap;html=1;" vertex="1" parent="1">
                    <mxGeometry x="260" y="780" width="80" height="120" as="geometry"/>
                </mxCell>
                <mxCell id="28" value="6" style="rounded=0;whiteSpace=wrap;html=1;" vertex="1" parent="1">
                    <mxGeometry x="340" y="780" width="80" height="120" as="geometry"/>
                </mxCell>
                <mxCell id="29" value="1" style="rounded=0;whiteSpace=wrap;html=1;" vertex="1" parent="1">
                    <mxGeometry x="80" y="640" width="80" height="120" as="geometry"/>
                </mxCell>
                <mxCell id="30" value="3" style="rounded=0;whiteSpace=wrap;html=1;" vertex="1" parent="1">
                    <mxGeometry x="160" y="640" width="80" height="120" as="geometry"/>
                </mxCell>
                <mxCell id="31" value="15" style="rounded=0;whiteSpace=wrap;html=1;" vertex="1" parent="1">
                    <mxGeometry x="620" y="640" width="80" height="120" as="geometry"/>
                </mxCell>
                <mxCell id="32" value="18" style="rounded=0;whiteSpace=wrap;html=1;" vertex="1" parent="1">
                    <mxGeometry x="700" y="640" width="80" height="120" as="geometry"/>
                </mxCell>
                <mxCell id="33" value="8" style="rounded=0;whiteSpace=wrap;html=1;" vertex="1" parent="1">
                    <mxGeometry x="440" y="640" width="80" height="120" as="geometry"/>
                </mxCell>
                <mxCell id="34" value="10" style="rounded=0;whiteSpace=wrap;html=1;" vertex="1" parent="1">
                    <mxGeometry x="520" y="640" width="80" height="120" as="geometry"/>
                </mxCell>
                <mxCell id="35" value="2" style="rounded=0;whiteSpace=wrap;html=1;" vertex="1" parent="1">
                    <mxGeometry x="260" y="640" width="80" height="120" as="geometry"/>
                </mxCell>
                <mxCell id="36" value="6" style="rounded=0;whiteSpace=wrap;html=1;" vertex="1" parent="1">
                    <mxGeometry x="340" y="640" width="80" height="120" as="geometry"/>
                </mxCell>
                <mxCell id="37" value="1" style="rounded=0;whiteSpace=wrap;html=1;" vertex="1" parent="1">
                    <mxGeometry x="80" y="780" width="80" height="120" as="geometry"/>
                </mxCell>
                <mxCell id="38" value="3" style="rounded=0;whiteSpace=wrap;html=1;" vertex="1" parent="1">
                    <mxGeometry x="160" y="780" width="80" height="120" as="geometry"/>
                </mxCell>
                <mxCell id="39" value="15" style="rounded=0;whiteSpace=wrap;html=1;" vertex="1" parent="1">
                    <mxGeometry x="620" y="780" width="80" height="120" as="geometry"/>
                </mxCell>
                <mxCell id="40" value="18" style="rounded=0;whiteSpace=wrap;html=1;" vertex="1" parent="1">
                    <mxGeometry x="700" y="780" width="80" height="120" as="geometry"/>
                </mxCell>
                <mxCell id="41" value="8" style="rounded=0;whiteSpace=wrap;html=1;" vertex="1" parent="1">
                    <mxGeometry x="440" y="780" width="80" height="120" as="geometry"/>
                </mxCell>
                <mxCell id="42" value="10" style="rounded=0;whiteSpace=wrap;html=1;" vertex="1" parent="1">
                    <mxGeometry x="520" y="780" width="80" height="120" as="geometry"/>
                </mxCell>
                <mxCell id="43" value="&lt;font style=&quot;font-size: 18px&quot;&gt;splice out current interval we are looking at, decrement i to account for spliced interval&lt;/font&gt;" style="text;html=1;strokeColor=none;fillColor=none;align=center;verticalAlign=middle;whiteSpace=wrap;rounded=0;" vertex="1" parent="1">
                    <mxGeometry x="180" y="925" width="420" height="70" as="geometry"/>
                </mxCell>
                <mxCell id="44" value="1" style="rounded=0;whiteSpace=wrap;html=1;" vertex="1" parent="1">
                    <mxGeometry x="80" y="995" width="80" height="120" as="geometry"/>
                </mxCell>
                <mxCell id="45" value="6" style="rounded=0;whiteSpace=wrap;html=1;" vertex="1" parent="1">
                    <mxGeometry x="160" y="995" width="80" height="120" as="geometry"/>
                </mxCell>
                <mxCell id="46" value="15" style="rounded=0;whiteSpace=wrap;html=1;" vertex="1" parent="1">
                    <mxGeometry x="440" y="995" width="80" height="120" as="geometry"/>
                </mxCell>
                <mxCell id="47" value="18" style="rounded=0;whiteSpace=wrap;html=1;" vertex="1" parent="1">
                    <mxGeometry x="520" y="995" width="80" height="120" as="geometry"/>
                </mxCell>
                <mxCell id="48" value="8" style="rounded=0;whiteSpace=wrap;html=1;" vertex="1" parent="1">
                    <mxGeometry x="260" y="995" width="80" height="120" as="geometry"/>
                </mxCell>
                <mxCell id="49" value="10" style="rounded=0;whiteSpace=wrap;html=1;" vertex="1" parent="1">
                    <mxGeometry x="340" y="995" width="80" height="120" as="geometry"/>
                </mxCell>
            </root>
        </mxGraphModel>
    </diagram>
</mxfile>